<svg width="18" height="12" viewBox="0 0 18 12" fill="none" xmlns="http://www.w3.org/2000/svg">
<path d="M1 5.5C0.723858 5.5 0.5 5.72386 0.5 6C0.5 6.27614 0.723858 6.5 1 6.5L1 5.5ZM17 6.5C17.2761 6.5 17.5 6.27614 17.5 6C17.5 5.72386 17.2761 5.5 17 5.5V6.5ZM13.352 0.644873C13.1558 0.450484 12.8393 0.451896 12.6449 0.648028C12.4505 0.844159 12.4519 1.16074 12.648 1.35513L13.352 0.644873ZM14.763 2.74731L14.411 3.10243L14.763 2.74731ZM14.763 9.25269L15.1149 9.60782L14.763 9.25269ZM12.648 10.6449C12.4519 10.8393 12.4505 11.1558 12.6449 11.352C12.8393 11.5481 13.1558 11.5495 13.352 11.3551L12.648 10.6449ZM16.9801 5.68667L17.4761 5.62345V5.62345L16.9801 5.68667ZM16.9801 6.31333L17.4761 6.37655V6.37655L16.9801 6.31333ZM1 6.5L17 6.5V5.5L1 5.5L1 6.5ZM12.648 1.35513L14.411 3.10243L15.1149 2.39218L13.352 0.644873L12.648 1.35513ZM14.411 8.89756L12.648 10.6449L13.352 11.3551L15.1149 9.60782L14.411 8.89756ZM14.411 3.10243C15.1223 3.80743 15.6253 4.30698 15.9683 4.73416C16.3051 5.15346 16.4464 5.4543 16.4841 5.74989L17.4761 5.62345C17.4055 5.06984 17.1413 4.59772 16.748 4.108C16.3611 3.62617 15.8096 3.08063 15.1149 2.39218L14.411 3.10243ZM15.1149 9.60782C15.8096 8.91937 16.3611 8.37383 16.748 7.892C17.1413 7.40228 17.4055 6.93016 17.4761 6.37655L16.4841 6.25011C16.4464 6.5457 16.3051 6.84654 15.9683 7.26584C15.6253 7.69302 15.1223 8.19256 14.411 8.89756L15.1149 9.60782ZM16.4841 5.74989C16.5053 5.91597 16.5053 6.08403 16.4841 6.25011L17.4761 6.37655C17.508 6.12651 17.508 5.87349 17.4761 5.62345L16.4841 5.74989Z" fill="#2B2B2B"/>
</svg>
