<svg width="24" height="24" viewBox="0 0 24 24" fill="none" xmlns="http://www.w3.org/2000/svg">
<path d="M18.8555 15.4294L22.284 14.5723L23.1412 18.0008" stroke="black" stroke-linecap="round" stroke-linejoin="round"/>
<path d="M22.284 14.5714C21.5226 16.7291 20.1395 18.613 18.3091 19.9858C16.4787 21.3586 14.2828 22.1589 11.9983 22.2857C9.88652 22.2861 7.82578 21.6364 6.09601 20.425C4.36624 19.2135 3.05129 17.499 2.32975 15.5143M5.14118 8.57143L1.71261 9.42857L0.855469 6" stroke="black" stroke-linecap="round" stroke-linejoin="round"/>
<path d="M1.71094 9.42913C3.15094 5.48627 7.57379 1.71484 11.9967 1.71484C14.1187 1.72081 16.1871 2.383 17.918 3.61063C19.649 4.83827 20.9579 6.57125 21.6652 8.57199" stroke="black" stroke-linecap="round" stroke-linejoin="round"/>
</svg>
